<?xml version="1.0" encoding="UTF-8"?>
<svg width="201.6mm" height="115.6mm" version="1.1" viewBox="0 0 201.6 115.6" xmlns="http://www.w3.org/2000/svg" xmlns:xlink="http://www.w3.org/1999/xlink">
  <defs>
    <linearGradient id="a" x1="8.367" x2="210" y1="131.9" y2="131.9" gradientUnits="userSpaceOnUse">
      <stop stop-color="#f74c00" offset="0"/>
      <stop stop-color="#f49600" offset="1"/>
    </linearGradient>
  </defs>
  <g transform="translate(-8.367 -74.07)">
    <g fill="url(#a)">
      <path d="m74.83 74.08c-0.3471-0.01811-0.7026 0.01075-1.06 0.0925-2.455 0.561-3.764 3.108-5.196 4.945-2.805 3.598-5.818 7.11-8.932 10.44-10.71 11.45-22.77 21.97-35.83 30.67-4.031 2.687-8.221 4.991-12.42 7.39-1.798 1.028-3.324 2.588-2.978 4.84 0.5855 3.813 6.54 5.579 9.469 7.338 8.827 5.299 17 11.51 24.84 18.18 8.449 7.191 16.57 15.27 23.59 23.87 2.124 2.604 5.024 8.711 9.153 7.767 6.74-1.54 1.372-8.392-0.9147-11.15-0.8563-1.034-1.96-1.96-1.399-3.386 10.07-25.63 12.06-54.79 2.326-81-0.5878-1.582-2.87-4.868-2.509-6.491 0.2346-1.054 1.386-2.012 2.043-2.823 1.358-1.676 3.22-3.47 3.706-5.644 0.5574-2.495-1.456-4.911-3.885-5.038zm-8.681 20.56h0.5648l4.798 16.37c-3.225 0.6191-6.358 1.758-9.031 3.709-15.37 11.22-9.227 34.55 9.031 38.06l-4.798 16.37h-0.5648c-11.22-15.01-28.81-27.25-44.59-36.97v-0.5648c15.78-9.722 33.37-21.96 44.59-36.97zm6.491 24.84c0.9645 8.123 0.9645 16.71 0 24.84-13.99-0.9494-13.99-23.89 0-24.84z"/>
      <path d="m90.52 113.2h-4.064v36.47h19.2v-4.42h-15.14zm37.49 0v23.06c0 6.35-2.845 9.957-7.772 9.957-4.877 0-7.62-3.607-7.62-10.06v-22.96h-4.064v24.33c0 8.026 4.47 13.11 11.53 13.11 7.315 0 11.99-5.385 11.99-13.77v-23.67zm14.53 23.67 4.724-5.486 10.46 18.29h5.232l-12.8-21.74 12.5-14.73h-5.588l-14.53 17.68v-17.68h-4.064v36.47h4.064zm41.61 2.184 2.946 10.62h4.42l-10.82-36.47h-4.623l-11.23 36.47h4.166l3.15-10.62zm-10.77-4.42 4.826-16.15 4.47 16.15zm19.51 3.302v3.607c0 5.537 3.302 9.093 8.433 9.093 5.537 0 8.687-3.912 8.687-10.82v-26.62h-4.064v26.92c0 4.216-1.524 6.299-4.674 6.299s-4.572-1.88-4.572-5.944v-2.54z"/>
    </g>
  </g>
</svg>
